<?xml version="1.0" encoding="utf-8"?>
<!-- Generator: Adobe Illustrator 16.0.0, SVG Export Plug-In . SVG Version: 6.00 Build 0)  -->
<!DOCTYPE svg PUBLIC "-//W3C//DTD SVG 1.1//EN" "http://www.w3.org/Graphics/SVG/1.1/DTD/svg11.dtd">
<svg version="1.1" id="图层_1" xmlns="http://www.w3.org/2000/svg" xmlns:xlink="http://www.w3.org/1999/xlink" x="0px" y="0px"
	 width="3968.5px" height="2409.45px" viewBox="0 0 3968.5 2409.45" enable-background="new 0 0 3968.5 2409.45"
	 xml:space="preserve">
<circle fill="#F3D759" stroke="#F3D759" stroke-width="0.25" stroke-miterlimit="10" cx="1705.098" cy="1392.295" r="255.118"/>
<circle fill="#5FB4C9" stroke="#5FB4C9" stroke-width="0.25" stroke-miterlimit="10" cx="2109.775" cy="1501.99" r="283.464"/>
<polygon fill="#2277AB" stroke="#2277AB" stroke-width="0.25" stroke-miterlimit="10" points="2164.081,1088.364 2179.188,1088.364 
	2214.35,1029.452 2231.302,1029.452 2269.703,986.802 2270.602,986.802 2270.108,986.352 2270.602,985.804 2269.508,985.804 
	2239.184,958.158 2217.842,958.158 2209.335,919.279 2177.137,919.279 2177.137,868.688 2123.241,868.688 2107.834,656.401 
	2092.426,868.688 2040.137,868.688 2040.137,919.279 2006.334,919.279 1997.826,958.158 1978.091,958.158 1947.77,985.803 
	1946.673,985.803 1947.167,986.352 1946.674,986.802 1947.572,986.802 1985.973,1029.451 2002.928,1029.451 2038.088,1088.364 
	2051.587,1088.364 2051.587,1113.863 2062.498,1113.863 1946.673,2014.27 2270.587,2014.256 2154.678,1113.863 2164.081,1113.863 
	"/>
<path fill="#5FB4C9" stroke="#5FB4C9" stroke-width="0.25" stroke-miterlimit="10" d="M2336.635,1451.334
	c-97.605,0-183.683,49.336-234.671,124.425c-22.32-118.12-126.046-207.466-250.656-207.466
	c-124.993,0-228.979,89.895-250.865,208.555c-23.004-7.857-47.672-12.128-73.338-12.128c-125.242,0-226.771,101.529-226.771,226.771
	c0,112.954,82.586,206.604,190.667,223.898v0.873h879.311c140.677-16.655,249.788-136.308,249.788-281.464
	C2620.099,1578.245,2493.188,1451.334,2336.635,1451.334z"/>
</svg>
